<?xml version="1.0" encoding="UTF-8"?><svg xmlns="http://www.w3.org/2000/svg" viewBox="0 0 1416.8 1060.72"><defs><style>.a{fill:#e0cdad;}.a,.b{stroke-width:0px;}.b{fill:#2c2823;}</style></defs><circle class="a" cx="706.28" cy="530.36" r="530.36"/><path class="b" d="m599.48,675.71c-1.38-.46-46.63-94.64-43.39-122.34,3.23-27.7,14.31-46.63,33.24-67.86,14.89-16.7,29.73-41.91,35.41-51.93-7.83-3.4-24.82-11.23-37.72-20.35,0,0-26.09,45.14-58.6,73.3.51,13.6,1.25,40.49-.33,49.77-2.15,12.62-15.39,19.39-14.77,28.62.62,9.23,31.08,56.32,45.86,88.33,14.77,32.01,10.46,41.55,10.46,41.55,11.39,4.31,15.08,20.62,15.08,20.62h47.55s-31.39-39.24-32.78-39.7Z"/><path class="b" d="m908.78,465.2c-20.01-21.88-25.6-42.46-27.14-53.49-4.77-.28-14.34-2.12-32.64-9.55l-7.69,64.44c20.6,29.18,67.78,56.16,67.78,56.16-4.92,73.86-47.86,113.72-47.86,113.72l12.46,10.62-16.16,29.08s35.55,34.16,39.24,26.78c3.69-7.39,1.85-40.16,1.85-40.16l13.85-17.08c11.08-83.56,38.78-108.49,41.09-124.64,2.31-16.16-15.23-23.54-44.78-55.86Z"/><path class="b" d="m1161.99,162.13s11.77-12-7.62-29.08c-19.39-17.08-46.4-8.77-59.32-8.31-12.93.46-9.69-5.54-29.31-9.34-19.62-3.81-26.78,9.58-26.78,9.58-3.92-5.77-10.46-6-10.46-6-4.31,6.16-3.08,18.16-3.08,18.16-17.54,10.46-15.39,48.93-22.77,90.79-7.39,41.86-23.24,74.33-71.25,78.02-48.01,3.69-66.02-50.93-76.48-74.33-10.46-23.39-25.24-11.08-53.55-18.47-28.31-7.39-45.55-84.33-116.33-78.17-70.79,6.16-110.49,91.1-110.49,91.1-178.2,54.47-145.88,230.82-145.88,230.82,29.85-.31,13.85-37.24,13.85-37.24-3.39-61.25,19.7-69.86,19.7-69.86,15.39,73.25,4.77,138.03-15.54,158.81-20.31,20.77-23.54,38.16-23.54,38.16,16.93,30.47,16.62,127.41,18.47,140.96,1.85,13.54,7.39,16,11.39,16.62,4,.62,3.69,11.08,3.69,11.08h43.7s-25.85-25.54-27.7-28.01c-1.85-2.46-10.46-75.71-10.16-107.1.31-31.39,4.62-33.85,4.62-33.85,27.39-20.01,60.94-68.02,60.94-68.02,0,0,57.86-54.74,68.32-123.06,0,0,1.08,28.31-7.39,52.17,0,0,16.95,12.44,38.16,21.66h0c44,20.42,120.74,15.78,142.63,13.94l-11.06-64.99c8.82,36.03,14.95,58.02,16.79,64.46.19-.02.29-.03.29-.03.1.65.15,1.24.24,1.88.02.08.05.18.05.18l-.03.04c9.96,70.64-7.26,108.83-13.66,122.08-6.46,13.39,3.69,27.24,9.69,42.01,6,14.77-.92,58.63-.46,74.79.46,16.16,11.08,15.23,11.08,15.23l-.46,16.62h48.01l-22.62-27.7s-4.77-77.25-2.31-92.94c2.46-15.7,13.23-28.62,20-52.63,6.77-24.01,11.08-83.4,11.08-83.4l4.31-67.36s21.49,10.11,40.3,12.35c0-.25.01-.39.01-.39,167.12,24.01,193.43-143.57,198.05-170.81,4.62-27.24,13.16-30.47,13.16-30.47,11.31-4.62,14.77-9.69,15.47-15.46.69-5.77,12.46-12.47,12.46-12.47,0,0,41.55,4.62,45.32-2.08,3.77-6.69-3.54-9.93-3.54-9.93Z"/><rect class="b" x="172.33" y="704.61" width="1037.05" height="13.52" transform="translate(-4.16 4.06) rotate(-.34)"/><path class="b" d="m1128.2,347.55c-22.05-55.58-55.36-106.8-97.26-149.89-83.89-86.5-203.88-136.27-324.66-136.48-120.77.26-240.79,49.97-324.64,136.5-41.89,43.09-75.22,94.3-97.26,149.88-21.59,55.72-32.4,115.49-30.54,174.76,2.15-78.57,24.99-155.63,64.5-222.41h126.52l-124.56-3.34c19.72-32.7,43.41-62.9,70.78-89.46,3.67-3.53,7.46-6.93,11.23-10.35l289.85-3.01-284.5-1.88c10.76-9.46,21.93-18.45,33.48-26.91,49.07-2.61,190.08-10.09,202.86-10.73,12.96-.65-137.7-.21-187.37-.05,25.03-16.8,51.63-31.19,79.56-42.52,53.84-22.07,111.98-33.23,170.1-33.07,58.12-.12,116.26,11.01,170.1,33.09,21.86,8.87,42.88,19.66,63,31.95l-168.51,4.41h175.53c26.89,17.11,52.08,36.95,75.07,59.1,72.94,70.77,120.27,167.11,133.56,268.95l-197.6,10.18s197.43-7.01,198.03-6.89c1.75,14.23,2.87,28.56,3.27,42.95,1.87-59.28-8.93-119.05-30.52-174.77Z"/><path class="b" d="m105.13,779.07c-6.98,7.6-13.92,16.16-20.82,25.7-6.9,9.54-13.06,19.97-18.49,31.28-5.43,11.32-9.81,23.53-13.14,36.63-3.34,13.1-5,27.02-5,41.75,0,13.8,2.48,25.62,7.44,35.47,4.96,9.85,11.55,17.95,19.77,24.3,8.22,6.36,17.71,11.01,28.49,13.96,10.77,2.95,21.98,4.42,33.61,4.42,9.3,0,18.64-.89,28.03-2.67,9.38-1.78,18.49-4.38,27.33-7.79v11.16c-15.35,7.91-30.31,13.68-44.89,17.33-14.58,3.64-28.53,5.47-41.86,5.47-15.2,0-29.27-2.29-42.21-6.86-12.95-4.58-24.11-11.24-33.49-20-9.38-8.76-16.71-19.42-21.98-31.98C2.65,944.67.01,930.4.01,914.43c0-13.8,2.13-26.82,6.4-39.07,4.26-12.25,9.92-23.72,16.98-34.42,7.05-10.7,15.08-20.62,24.07-29.77,8.99-9.15,18.26-17.52,27.79-25.12,9.54-7.6,18.88-14.34,28.03-20.23,9.15-5.89,17.36-10.93,24.65-15.12,1.55,0,3.99.54,7.33,1.63,3.33,1.09,7.13,2.52,11.4,4.3,4.26,1.78,8.72,3.8,13.37,6.05,4.65,2.25,9.11,4.54,13.37,6.86,4.26,2.33,8.06,4.54,11.4,6.63,3.33,2.09,5.85,3.92,7.56,5.47l-25.35,34.42c-3.57-3.41-7.95-6.94-13.14-10.58-5.2-3.64-10.66-7.17-16.4-10.58-5.74-3.41-11.44-6.51-17.09-9.3-5.66-2.79-10.74-4.96-15.23-6.51Zm32.1,67.91l-21.16,21.16-21.4-21.16,21.4-21.4,21.16,21.4Zm0,50.47l-21.16,21.17-21.4-21.17,21.4-21.4,21.16,21.4Zm0,47.21l-21.16,21.17-21.4-21.17,21.4-21.4,21.16,21.4Z"/><path class="b" d="m256.31,947.69c-2.48,6.83-5.16,13.41-8.02,19.77-2.87,6.36-5.89,11.98-9.07,16.86-3.18,4.88-6.55,8.8-10.12,11.75-3.57,2.95-7.21,4.42-10.93,4.42-6.2,0-11.67-1.74-16.4-5.23-4.73-3.49-8.65-8.06-11.74-13.72-3.1-5.66-5.43-12.13-6.98-19.42-1.55-7.29-2.33-14.65-2.33-22.09v-2.56c.31-5.89.93-11.75,1.86-17.56.93-5.81,2.33-11.2,4.19-16.16,1.7-4.5,4.26-9.15,7.68-13.95,3.41-4.8,7.33-9.5,11.74-14.07,4.42-4.57,9.3-8.91,14.65-13.02,5.35-4.11,10.85-7.71,16.51-10.82,5.66-3.1,11.4-5.54,17.21-7.33,5.81-1.78,11.36-2.67,16.63-2.67,1.71,0,3.76.04,6.16.12,2.4.08,4.96.2,7.68.35,2.71.16,5.46.39,8.26.7,2.79.31,5.35.7,7.67,1.16l-.23,33.26c-1.4-.31-3.72-.7-6.98-1.16-3.26-.46-6.71-.85-10.35-1.16-3.65-.31-7.13-.58-10.47-.81-3.34-.23-5.85-.35-7.56-.35h-.93c-8.37.78-15.2,3.61-20.47,8.49-5.27,4.88-9.3,10.81-12.09,17.79s-4.54,14.46-5.23,22.44c-.7,7.99-.78,15.35-.23,22.09.54,6.75,1.59,12.33,3.14,16.75,1.55,4.42,3.1,6.63,4.65,6.63,1.4,0,2.94-1.43,4.65-4.3,1.71-2.87,3.49-6.67,5.35-11.4,1.86-4.73,3.8-10.04,5.81-15.93,2.01-5.89,3.99-11.82,5.93-17.79,1.94-5.97,3.76-11.75,5.47-17.33,1.7-5.58,3.26-10.31,4.65-14.19h34.65v74.42c0,2.17.58,4.11,1.74,5.81,1.16,1.71,2.67,2.87,4.54,3.49,1.55.46,3.33.74,5.35.81,2.01.08,4.11.12,6.28.12h31.17v28.61h-41.86c-5.74,0-11.63-1.63-17.68-4.88-6.05-3.26-11.51-7.44-16.4-12.56-4.88-5.12-8.95-10.81-12.21-17.09-3.26-6.28-5.04-12.36-5.35-18.26Z"/><path class="b" d="m385.62,882.57c1.7-7.29,4.3-13.68,7.79-19.19,3.49-5.5,7.56-10.15,12.21-13.95,4.65-3.8,9.69-6.67,15.12-8.61,5.42-1.94,10.93-2.91,16.51-2.91,6.36,0,11.59,1.36,15.7,4.07,4.11,2.71,7.44,6.2,10,10.47,2.56,4.27,4.46,9.07,5.7,14.42,1.24,5.35,2.09,10.66,2.56,15.93,1.7-7.29,4.3-13.68,7.79-19.19,3.49-5.5,7.56-10.19,12.21-14.07,4.65-3.87,9.69-6.78,15.12-8.72,5.42-1.94,10.93-2.91,16.51-2.91s10.54,1.13,14.42,3.37c3.87,2.25,7.13,5.16,9.77,8.72,2.63,3.57,4.65,7.64,6.05,12.21,1.4,4.58,2.4,9.27,3.02,14.07.62,4.81,1.01,9.5,1.16,14.07.15,4.58.23,8.57.23,11.98v59.31c0,2.17.54,4.11,1.63,5.81,1.08,1.71,2.56,2.87,4.42,3.49,1.55.46,3.33.74,5.35.81,2.01.08,4.11.12,6.28.12h31.17v28.61h-41.63c-6.05,0-12.13-1.7-18.26-5.12-6.13-3.41-11.67-7.75-16.63-13.02-4.96-5.27-8.99-11.08-12.09-17.44-3.1-6.36-4.65-12.56-4.65-18.61v-44.42c0-4.65-.08-9.11-.23-13.37-.16-4.26-.66-8.02-1.51-11.28-.85-3.26-2.09-5.85-3.72-7.79-1.63-1.94-3.92-2.91-6.86-2.91s-6.13,1.01-9.54,3.02c-3.41,2.02-6.55,4.81-9.42,8.37-2.87,3.57-5.23,7.79-7.09,12.68-1.86,4.88-2.79,10.2-2.79,15.93v93.96h-44.42v-98.61c0-4.65-.08-9.11-.23-13.37-.16-4.26-.66-8.02-1.51-11.28-.85-3.26-2.09-5.85-3.72-7.79-1.63-1.94-3.92-2.91-6.86-2.91-2.79,0-5.81.89-9.07,2.67-3.26,1.78-6.28,4.3-9.07,7.56-2.79,3.26-5.16,7.13-7.09,11.63-1.94,4.5-3.14,9.38-3.61,14.65v97.45h-44.42v-120.94c0-2.17-.54-4.26-1.63-6.28-1.09-2.01-2.56-3.02-4.42-3.02h-20.93l12.09-28.37h8.14c3.41,0,7.71,1.32,12.91,3.95,5.19,2.64,10.35,6.01,15.47,10.12,5.12,4.11,9.77,8.53,13.95,13.26,4.19,4.73,6.9,9.19,8.14,13.37Z"/><path class="b" d="m641.69,1000.49c-10.86-.15-20.27-1.86-28.26-5.12-7.99-3.26-14.65-7.79-20-13.61s-9.34-12.83-11.98-21.05c-2.64-8.22-4.03-17.29-4.19-27.21v-.47c0-4.96,1.32-10.73,3.95-17.33,2.63-6.59,6.16-13.41,10.58-20.47,4.42-7.05,9.5-13.99,15.23-20.82,5.73-6.82,11.78-12.94,18.14-18.37,6.36-5.43,12.79-9.8,19.3-13.14,6.51-3.33,12.71-5,18.61-5,3.72,0,7.21.89,10.47,2.67,3.26,1.78,6.12,4.19,8.61,7.21,2.48,3.02,4.46,6.48,5.93,10.35,1.47,3.88,2.21,7.91,2.21,12.09,0,6.05-2.44,12.13-7.33,18.26-4.88,6.13-10.86,11.67-17.91,16.63-7.06,4.96-14.54,9.07-22.44,12.33-7.91,3.26-14.88,4.96-20.93,5.12v10.47c.31,12.56,2.75,22.17,7.33,28.84,4.57,6.67,12.44,10,23.61,10h77.45v28.61h-88.38Zm8.84-132.1c-5.27,0-9.65,1.13-13.14,3.37-3.49,2.25-6.36,5.47-8.61,9.65-2.25,4.19-3.88,9.23-4.88,15.12-1.01,5.89-1.67,12.56-1.98,20,4.96-.93,9.8-2.59,14.54-5,4.73-2.4,8.95-5.31,12.68-8.72,3.72-3.41,6.74-7.05,9.07-10.93,2.33-3.87,3.49-7.67,3.49-11.4,0-2.94-.89-5.7-2.67-8.26-1.78-2.56-4.62-3.84-8.49-3.84Z"/><path class="b" d="m749.37,961.65c0,2.17.54,4.11,1.63,5.81,1.08,1.71,2.56,2.87,4.42,3.49,1.55.46,3.33.74,5.35.81,2.01.08,4.11.12,6.28.12h54.42v28.61h-64.89c-6.05,0-12.13-1.7-18.26-5.12-6.13-3.41-11.67-7.75-16.63-13.02-4.96-5.27-9.03-11.08-12.21-17.44-3.18-6.36-4.77-12.56-4.77-18.61v-146.29c0-2.17-.5-4.22-1.51-6.16-1.01-1.94-2.52-2.91-4.54-2.91h-20.93l12.33-28.61h7.91c3.72,0,8.49,1.59,14.3,4.77,5.81,3.18,11.47,7.06,16.98,11.63,5.5,4.58,10.23,9.46,14.19,14.65,3.95,5.2,5.93,9.88,5.93,14.07v154.2Z"/><path class="b" d="m961.25,803.73c-5.43,2.02-11.24,3.45-17.44,4.3-6.2.85-12.56,1.28-19.07,1.28-8.53,0-17.21-.58-26.05-1.75-8.84-1.16-17.52-2.63-26.05-4.42-8.53-1.78-16.67-3.72-24.42-5.81-7.75-2.09-14.81-4.03-21.17-5.81-6.36-1.78-11.83-3.26-16.4-4.42-4.58-1.16-7.87-1.74-9.88-1.74-3.26,0-6.44.62-9.54,1.86-3.1,1.24-5.81,2.99-8.14,5.23-2.33,2.25-4.19,4.96-5.58,8.14-1.4,3.18-2.09,6.63-2.09,10.35l-1.16-.47c.16-10.23,1.51-18.76,4.07-25.58,2.56-6.82,5.81-12.25,9.77-16.28,3.95-4.03,8.49-6.9,13.61-8.61,5.12-1.7,10.39-2.56,15.82-2.56,2.79,0,6.67.51,11.63,1.51,4.96,1.01,10.73,2.21,17.33,3.61,6.59,1.4,13.72,2.99,21.4,4.77,7.67,1.78,15.66,3.37,23.96,4.77,8.29,1.4,16.67,2.6,25.12,3.61,8.45,1.01,16.71,1.51,24.77,1.51,10.7,0,20.58-1.08,29.65-3.26,9.07-2.17,16.63-6.05,22.68-11.63l-.46,11.16v154.2c0,9.15.38,16.79,1.16,22.91.77,6.13,1.98,11.05,3.6,14.77,1.63,3.72,3.8,6.4,6.51,8.02,2.71,1.63,5.93,2.44,9.65,2.44,6.36,0,12.09-1.9,17.21-5.7,5.12-3.8,9.5-8.53,13.14-14.19,3.64-5.66,6.43-11.78,8.37-18.37,1.94-6.59,2.91-12.75,2.91-18.49v-95.36c0-1.7,1.24-4.3,3.72-7.79,2.48-3.49,5.73-7.4,9.77-11.75,4.03-4.34,8.49-8.87,13.37-13.61,4.88-4.73,9.69-9.07,14.42-13.02,4.73-3.95,9.15-7.33,13.26-10.12,4.11-2.79,7.33-4.5,9.65-5.12.77-.15,1.74-.27,2.91-.35,1.16-.08,2.52-.12,4.07-.12,2.17,0,4.54.08,7.09.23,2.56.16,5,.35,7.33.58,2.33.23,4.42.54,6.28.93,1.86.39,3.26.81,4.19,1.28l-15.58,33.26c-.93-.62-2.29-1.2-4.07-1.74-1.78-.54-3.72-1.01-5.81-1.4-2.09-.39-4.27-.7-6.51-.93-2.25-.23-4.23-.35-5.93-.35s-3.18.16-4.42.46c-4.03,1.24-6.05,4.27-6.05,9.07v158.62c0,4.81,2.01,7.83,6.05,9.07.77.16,2.25.31,4.42.46,2.17.16,4.73.27,7.67.35,2.94.08,6.16.12,9.65.12h28.72v28.61h-52.56c-6.05,0-12.13-1.7-18.26-5.12-6.13-3.41-11.67-7.75-16.63-13.02-4.96-5.27-8.99-11.08-12.09-17.44-3.1-6.36-4.65-12.56-4.65-18.61-1.86,8.06-4.77,15.62-8.72,22.68-3.95,7.06-8.65,13.22-14.07,18.49-5.43,5.27-11.51,9.42-18.26,12.44-6.75,3.02-13.92,4.54-21.51,4.54-8.84,0-16.28-1.63-22.33-4.88-6.05-3.26-10.93-7.83-14.65-13.72-3.72-5.89-6.4-12.87-8.02-20.93-1.63-8.06-2.44-16.9-2.44-26.51v-115.12c0-1.4,1.47-3.87,4.42-7.44,2.94-3.57,6.51-7.59,10.7-12.09Zm-34.19,72.8l-21.4,21.4-21.17-21.4,21.17-21.16,21.4,21.16Zm0,50.47l-21.4,21.4-21.17-21.4,21.17-21.16,21.4,21.16Zm0,47.21l-21.4,21.4-21.17-21.4,21.17-21.16,21.4,21.16Z"/><path class="b" d="m1196.15,882.57c1.7-7.29,4.3-13.68,7.79-19.19,3.49-5.5,7.56-10.15,12.21-13.95,4.65-3.8,9.69-6.67,15.12-8.61,5.42-1.94,10.93-2.91,16.51-2.91,6.36,0,11.59,1.36,15.7,4.07,4.11,2.71,7.44,6.2,10,10.47,2.56,4.27,4.46,9.07,5.7,14.42,1.24,5.35,2.09,10.66,2.56,15.93,1.7-7.29,4.3-13.68,7.79-19.19,3.49-5.5,7.56-10.19,12.21-14.07,4.65-3.87,9.69-6.78,15.12-8.72,5.42-1.94,10.93-2.91,16.51-2.91s10.54,1.13,14.42,3.37c3.87,2.25,7.13,5.16,9.77,8.72,2.63,3.57,4.65,7.64,6.05,12.21,1.4,4.58,2.4,9.27,3.02,14.07.62,4.81,1.01,9.5,1.16,14.07.15,4.58.23,8.57.23,11.98v59.31c0,2.17.54,4.11,1.63,5.81,1.08,1.71,2.56,2.87,4.42,3.49,1.55.46,3.33.74,5.35.81,2.01.08,4.11.12,6.28.12h31.17v28.61h-41.63c-6.05,0-12.13-1.7-18.26-5.12-6.13-3.41-11.67-7.75-16.63-13.02-4.96-5.27-8.99-11.08-12.09-17.44-3.1-6.36-4.65-12.56-4.65-18.61v-44.42c0-4.65-.08-9.11-.23-13.37-.16-4.26-.66-8.02-1.51-11.28-.85-3.26-2.09-5.85-3.72-7.79-1.63-1.94-3.92-2.91-6.86-2.91s-6.13,1.01-9.54,3.02c-3.41,2.02-6.55,4.81-9.42,8.37-2.87,3.57-5.23,7.79-7.09,12.68-1.86,4.88-2.79,10.2-2.79,15.93v93.96h-44.42v-98.61c0-4.65-.08-9.11-.23-13.37-.16-4.26-.66-8.02-1.51-11.28-.85-3.26-2.09-5.85-3.72-7.79-1.63-1.94-3.92-2.91-6.86-2.91-2.79,0-5.81.89-9.07,2.67-3.26,1.78-6.28,4.3-9.07,7.56-2.79,3.26-5.16,7.13-7.09,11.63-1.94,4.5-3.14,9.38-3.61,14.65v97.45h-44.42v-120.94c0-2.17-.54-4.26-1.63-6.28-1.09-2.01-2.56-3.02-4.42-3.02h-20.93l12.09-28.37h8.14c3.41,0,7.71,1.32,12.91,3.95,5.19,2.64,10.35,6.01,15.47,10.12,5.12,4.11,9.77,8.53,13.95,13.26,4.19,4.73,6.9,9.19,8.14,13.37Z"/></svg>