<?xml version="1.0" encoding="UTF-8"?><svg xmlns="http://www.w3.org/2000/svg" viewBox="0 0 1064.34 1060.72"><defs><style>.a{fill:#e0cdad;}.a,.b{stroke-width:0px;}.b{fill:#2c2823;}</style></defs><circle class="a" cx="533.98" cy="530.36" r="530.36"/><path class="b" d="m427.18,675.71c-1.38-.46-46.63-94.64-43.39-122.34,3.23-27.7,14.31-46.63,33.24-67.86,14.89-16.7,29.73-41.91,35.41-51.93-7.83-3.4-24.82-11.23-37.72-20.35,0,0-26.09,45.14-58.6,73.3.51,13.6,1.25,40.49-.33,49.77-2.15,12.62-15.39,19.39-14.77,28.62.62,9.23,31.08,56.32,45.86,88.33,14.77,32.01,10.46,41.55,10.46,41.55,11.39,4.31,15.08,20.62,15.08,20.62h47.55s-31.39-39.24-32.78-39.7Z"/><path class="b" d="m736.48,465.2c-20.01-21.88-25.6-42.46-27.14-53.49-4.77-.28-14.34-2.12-32.64-9.55l-7.69,64.44c20.6,29.18,67.78,56.16,67.78,56.16-4.92,73.86-47.86,113.72-47.86,113.72l12.46,10.62-16.16,29.08s35.55,34.16,39.24,26.78c3.69-7.39,1.85-40.16,1.85-40.16l13.85-17.08c11.08-83.56,38.78-108.49,41.09-124.64,2.31-16.16-15.23-23.54-44.78-55.86Z"/><path class="b" d="m989.7,162.13s11.77-12-7.62-29.08c-19.39-17.08-46.4-8.77-59.32-8.31-12.93.46-9.69-5.54-29.31-9.34-19.62-3.81-26.78,9.58-26.78,9.58-3.92-5.77-10.46-6-10.46-6-4.31,6.16-3.08,18.16-3.08,18.16-17.54,10.46-15.39,48.93-22.77,90.79-7.39,41.86-23.24,74.33-71.25,78.02-48.01,3.69-66.02-50.93-76.48-74.33-10.46-23.39-25.24-11.08-53.55-18.47-28.31-7.39-45.55-84.33-116.33-78.17-70.79,6.16-110.49,91.1-110.49,91.1-178.2,54.47-145.88,230.82-145.88,230.82,29.85-.31,13.85-37.24,13.85-37.24-3.39-61.25,19.7-69.86,19.7-69.86,15.39,73.25,4.77,138.03-15.54,158.81-20.31,20.77-23.54,38.16-23.54,38.16,16.93,30.47,16.62,127.41,18.47,140.96,1.85,13.54,7.39,16,11.39,16.62,4,.62,3.69,11.08,3.69,11.08h43.7s-25.85-25.54-27.7-28.01c-1.85-2.46-10.46-75.71-10.16-107.1.31-31.39,4.62-33.85,4.62-33.85,27.39-20.01,60.94-68.02,60.94-68.02,0,0,57.86-54.74,68.32-123.06,0,0,1.08,28.31-7.39,52.17,0,0,16.95,12.44,38.16,21.66h0c44,20.42,120.74,15.78,142.63,13.94l-11.06-64.99c8.82,36.03,14.95,58.02,16.79,64.46.19-.02.29-.03.29-.03.1.65.15,1.24.24,1.88.02.08.05.18.05.18l-.03.04c9.96,70.64-7.26,108.83-13.66,122.08-6.46,13.39,3.69,27.24,9.69,42.01,6,14.77-.92,58.63-.46,74.79.46,16.16,11.08,15.23,11.08,15.23l-.46,16.62h48.01l-22.62-27.7s-4.77-77.25-2.31-92.94c2.46-15.7,13.23-28.62,20-52.63,6.77-24.01,11.08-83.4,11.08-83.4l4.31-67.36s21.49,10.11,40.3,12.35c0-.25.01-.39.01-.39,167.12,24.01,193.43-143.57,198.05-170.81,4.62-27.24,13.16-30.47,13.16-30.47,11.31-4.62,14.77-9.69,15.47-15.46.69-5.77,12.46-12.47,12.46-12.47,0,0,41.55,4.62,45.32-2.08,3.77-6.69-3.54-9.93-3.54-9.93Z"/><rect class="b" x=".03" y="704.61" width="1037.05" height="13.52" transform="translate(-4.16 3.05) rotate(-.34)"/><path class="b" d="m955.9,347.55c-22.05-55.58-55.36-106.8-97.26-149.89-83.89-86.5-203.88-136.27-324.66-136.48-120.77.26-240.79,49.97-324.64,136.5-41.89,43.09-75.22,94.3-97.26,149.88-21.59,55.72-32.4,115.49-30.54,174.76,2.15-78.57,24.99-155.63,64.5-222.41h126.52l-124.56-3.34c19.72-32.7,43.41-62.9,70.78-89.46,3.67-3.53,7.46-6.93,11.23-10.35l289.85-3.01-284.5-1.88c10.76-9.46,21.93-18.45,33.48-26.91,49.07-2.61,190.08-10.09,202.86-10.73,12.96-.65-137.7-.21-187.37-.05,25.03-16.8,51.63-31.19,79.56-42.52,53.84-22.07,111.98-33.23,170.1-33.07,58.12-.12,116.26,11.01,170.1,33.09,21.86,8.87,42.88,19.66,63,31.95l-168.51,4.41h175.53c26.89,17.11,52.08,36.95,75.07,59.1,72.94,70.77,120.27,167.11,133.56,268.95l-197.6,10.18s197.43-7.01,198.03-6.89c1.75,14.23,2.87,28.56,3.27,42.95,1.87-59.28-8.93-119.05-30.52-174.77Z"/></svg>