<?xml version="1.0" encoding="UTF-8"?><svg id="a" xmlns="http://www.w3.org/2000/svg" viewBox="0 0 128 25.55"><defs><style>.b{stroke-width:0px;}</style></defs><path class="b" d="m10.29,3.49c-.63.68-1.25,1.45-1.87,2.31-.62.86-1.17,1.79-1.66,2.81-.49,1.02-.88,2.11-1.18,3.29-.3,1.18-.45,2.42-.45,3.75,0,1.24.22,2.3.67,3.18.45.88,1.04,1.61,1.77,2.18.74.57,1.59.99,2.56,1.25.97.26,1.97.4,3.02.4.83,0,1.67-.08,2.51-.24.84-.16,1.66-.39,2.45-.7v1c-1.38.71-2.72,1.23-4.03,1.55-1.31.33-2.56.49-3.76.49-1.36,0-2.63-.21-3.79-.62-1.16-.41-2.16-1.01-3.01-1.79s-1.5-1.74-1.97-2.87c-.47-1.13-.71-2.41-.71-3.84,0-1.24.19-2.41.57-3.51.38-1.1.89-2.13,1.52-3.09.63-.96,1.35-1.85,2.16-2.67.81-.82,1.64-1.57,2.49-2.25.86-.68,1.69-1.29,2.51-1.82.82-.53,1.56-.98,2.21-1.36.14,0,.36.05.66.15.3.1.64.23,1.02.39.38.16.78.34,1.2.54s.82.41,1.2.62c.38.21.72.41,1.02.59.3.19.52.35.68.49l-2.27,3.09c-.32-.31-.71-.62-1.18-.95-.47-.33-.96-.64-1.47-.95-.52-.31-1.03-.58-1.53-.83s-.96-.44-1.37-.58Zm2.88,6.09l-1.9,1.9-1.92-1.9,1.92-1.92,1.9,1.92Zm0,4.53l-1.9,1.9-1.92-1.9,1.92-1.92,1.9,1.92Zm0,4.24l-1.9,1.9-1.92-1.9,1.92-1.92,1.9,1.92Z"/><path class="b" d="m23.86,18.63c-.22.61-.46,1.2-.72,1.77-.26.57-.53,1.08-.81,1.51-.29.44-.59.79-.91,1.05-.32.26-.65.4-.98.4-.56,0-1.05-.16-1.47-.47-.42-.31-.78-.72-1.05-1.23-.28-.51-.49-1.09-.63-1.74-.14-.65-.21-1.31-.21-1.98v-.23c.03-.53.08-1.05.17-1.58.08-.52.21-1.01.38-1.45.15-.4.38-.82.69-1.25.31-.43.66-.85,1.05-1.26.4-.41.83-.8,1.31-1.17.48-.37.97-.69,1.48-.97s1.02-.5,1.54-.66c.52-.16,1.02-.24,1.49-.24.15,0,.34,0,.55.01.22,0,.44.02.69.03.24.01.49.04.74.06.25.03.48.06.69.1l-.02,2.98c-.13-.03-.33-.06-.63-.1-.29-.04-.6-.08-.93-.1-.33-.03-.64-.05-.94-.07-.3-.02-.53-.03-.68-.03h-.08c-.75.07-1.36.32-1.84.76-.47.44-.83.97-1.09,1.6-.25.63-.41,1.3-.47,2.01s-.07,1.38-.02,1.98.14,1.11.28,1.5c.14.4.28.59.42.59.13,0,.26-.13.42-.39.15-.26.31-.6.48-1.02.17-.42.34-.9.52-1.43.18-.53.36-1.06.53-1.6.17-.54.34-1.05.49-1.56.15-.5.29-.92.42-1.27h3.11v6.68c0,.19.05.37.16.52s.24.26.41.31c.14.04.3.07.48.07.18,0,.37.01.56.01h2.8v2.57h-3.76c-.52,0-1.04-.15-1.59-.44s-1.03-.67-1.47-1.13c-.44-.46-.8-.97-1.1-1.53-.29-.56-.45-1.11-.48-1.64Z"/><path class="b" d="m35.46,12.78c.15-.65.39-1.23.7-1.72.31-.49.68-.91,1.1-1.25.42-.34.87-.6,1.36-.77.49-.17.98-.26,1.48-.26.57,0,1.04.12,1.41.37.37.24.67.56.9.94.23.38.4.81.51,1.29.11.48.19.96.23,1.43.15-.65.39-1.23.7-1.72.31-.49.68-.91,1.1-1.26.42-.35.87-.61,1.36-.78.49-.17.98-.26,1.48-.26s.95.1,1.29.3c.35.2.64.46.88.78.24.32.42.69.54,1.1.13.41.22.83.27,1.26.06.43.09.85.1,1.26.01.41.02.77.02,1.07v5.32c0,.19.05.37.15.52.1.15.23.26.4.31.14.04.3.07.48.07.18,0,.37.01.56.01h2.8v2.57h-3.74c-.54,0-1.09-.15-1.64-.46-.55-.31-1.05-.7-1.49-1.17-.45-.47-.81-1-1.09-1.57s-.42-1.13-.42-1.67v-3.99c0-.42,0-.82-.02-1.2-.01-.38-.06-.72-.14-1.01s-.19-.52-.33-.7c-.15-.17-.35-.26-.62-.26s-.55.09-.86.27c-.31.18-.59.43-.85.75-.26.32-.47.7-.64,1.14-.17.44-.25.92-.25,1.43v8.43h-3.99v-8.85c0-.42,0-.82-.02-1.2-.01-.38-.06-.72-.14-1.01-.08-.29-.19-.52-.33-.7-.15-.17-.35-.26-.62-.26-.25,0-.52.08-.81.24-.29.16-.56.39-.81.68-.25.29-.46.64-.64,1.04-.17.4-.28.84-.32,1.31v8.75h-3.99v-10.85c0-.19-.05-.38-.15-.56-.1-.18-.23-.27-.4-.27h-1.88l1.09-2.55h.73c.31,0,.69.12,1.16.35.47.24.93.54,1.39.91.46.37.88.77,1.25,1.19.38.42.62.82.73,1.2Z"/><path class="b" d="m58.44,23.37c-.97-.01-1.82-.17-2.54-.46-.72-.29-1.31-.7-1.8-1.22-.48-.52-.84-1.15-1.07-1.89-.24-.74-.36-1.55-.38-2.44v-.04c0-.45.12-.96.35-1.56.24-.59.55-1.2.95-1.84s.85-1.26,1.37-1.87c.51-.61,1.06-1.16,1.63-1.65.57-.49,1.15-.88,1.73-1.18.58-.3,1.14-.45,1.67-.45.33,0,.65.08.94.24.29.16.55.38.77.65.22.27.4.58.53.93.13.35.2.71.2,1.09,0,.54-.22,1.09-.66,1.64-.44.55-.97,1.05-1.61,1.49-.63.45-1.3.81-2.01,1.11-.71.29-1.34.45-1.88.46v.94c.03,1.13.25,1.99.66,2.59.41.6,1.12.9,2.12.9h6.95v2.57h-7.93Zm.79-11.86c-.47,0-.87.1-1.18.3-.31.2-.57.49-.77.87-.2.38-.35.83-.44,1.36-.09.53-.15,1.13-.18,1.79.44-.08.88-.23,1.3-.45s.8-.48,1.14-.78.61-.63.81-.98c.21-.35.31-.69.31-1.02,0-.26-.08-.51-.24-.74-.16-.23-.41-.34-.76-.34Z"/><path class="b" d="m68.1,19.88c0,.19.05.37.15.52.1.15.23.26.4.31.14.04.3.07.48.07.18,0,.37.01.56.01h4.88v2.57h-5.82c-.54,0-1.09-.15-1.64-.46-.55-.31-1.05-.7-1.49-1.17-.45-.47-.81-1-1.1-1.57s-.43-1.13-.43-1.67V5.37c0-.19-.05-.38-.14-.55s-.23-.26-.41-.26h-1.88l1.11-2.57h.71c.33,0,.76.14,1.28.43s1.03.63,1.52,1.04c.49.41.92.85,1.27,1.31.35.47.53.89.53,1.26v13.84Z"/><path class="b" d="m87.12,5.71c-.49.18-1.01.31-1.57.39-.56.08-1.13.11-1.71.11-.77,0-1.54-.05-2.34-.16-.79-.1-1.57-.24-2.34-.4-.77-.16-1.5-.33-2.19-.52-.7-.19-1.33-.36-1.9-.52-.57-.16-1.06-.29-1.47-.4-.41-.1-.71-.16-.89-.16-.29,0-.58.06-.86.17s-.52.27-.73.47c-.21.2-.38.45-.5.73-.12.29-.19.6-.19.93l-.1-.04c.01-.92.14-1.68.37-2.3s.52-1.1.88-1.46c.35-.36.76-.62,1.22-.77.46-.15.93-.23,1.42-.23.25,0,.6.05,1.04.14.45.09.96.2,1.55.32.59.12,1.23.27,1.92.43.69.16,1.41.3,2.15.43.74.13,1.5.23,2.25.32.76.09,1.5.14,2.22.14.96,0,1.85-.1,2.66-.29.81-.19,1.49-.54,2.04-1.04l-.04,1v13.84c0,.82.04,1.51.1,2.06.07.55.18.99.32,1.33.15.33.34.57.58.72.24.15.53.22.87.22.57,0,1.08-.17,1.54-.51.46-.34.85-.77,1.18-1.27s.58-1.06.75-1.65c.17-.59.26-1.14.26-1.66V7.5c0-.15.11-.39.33-.7.22-.31.51-.66.88-1.05s.76-.8,1.2-1.22c.44-.42.87-.81,1.29-1.17.42-.35.82-.66,1.19-.91.37-.25.66-.4.87-.46.07-.01.16-.02.26-.03.1,0,.23-.01.37-.01.19,0,.41,0,.64.02.23.01.45.03.66.05.21.02.4.05.56.08s.29.07.38.11l-1.4,2.98c-.08-.06-.21-.11-.37-.16s-.33-.09-.52-.12c-.19-.03-.38-.06-.58-.08-.2-.02-.38-.03-.53-.03s-.29.01-.4.04c-.36.11-.54.38-.54.81v14.23c0,.43.18.7.54.81.07.01.2.03.4.04.19.01.42.02.69.03.26,0,.55.01.87.01h2.58v2.57h-4.72c-.54,0-1.09-.15-1.64-.46-.55-.31-1.05-.7-1.49-1.17-.45-.47-.81-1-1.08-1.57s-.42-1.13-.42-1.67c-.17.72-.43,1.4-.78,2.04s-.78,1.19-1.26,1.66-1.03.84-1.64,1.12-1.25.41-1.93.41c-.79,0-1.46-.15-2-.44-.54-.29-.98-.7-1.32-1.23-.33-.53-.57-1.15-.72-1.88-.15-.72-.22-1.52-.22-2.38V7.46c0-.12.13-.35.4-.67.26-.32.58-.68.96-1.09Zm-3.07,6.53l-1.92,1.92-1.9-1.92,1.9-1.9,1.92,1.9Zm0,4.53l-1.92,1.92-1.9-1.92,1.9-1.9,1.92,1.9Zm0,4.24l-1.92,1.92-1.9-1.92,1.9-1.9,1.92,1.9Z"/><path class="b" d="m108.2,12.78c.15-.65.39-1.23.7-1.72.31-.49.68-.91,1.1-1.25.42-.34.87-.6,1.36-.77.49-.17.98-.26,1.48-.26.57,0,1.04.12,1.41.37.37.24.67.56.9.94s.4.81.51,1.29.19.96.23,1.43c.15-.65.39-1.23.7-1.72.31-.49.68-.91,1.1-1.26.42-.35.87-.61,1.36-.78.49-.17.98-.26,1.48-.26s.95.1,1.29.3.64.46.88.78c.24.32.42.69.54,1.1.12.41.21.83.27,1.26.06.43.09.85.1,1.26.01.41.02.77.02,1.07v5.32c0,.19.05.37.15.52s.23.26.4.31c.14.04.3.07.48.07.18,0,.37.01.56.01h2.8v2.57h-3.74c-.54,0-1.09-.15-1.64-.46-.55-.31-1.05-.7-1.49-1.17-.45-.47-.81-1-1.08-1.57s-.42-1.13-.42-1.67v-3.99c0-.42,0-.82-.02-1.2-.01-.38-.06-.72-.14-1.01s-.19-.52-.33-.7c-.15-.17-.35-.26-.62-.26s-.55.09-.86.27c-.31.18-.59.43-.84.75-.26.32-.47.7-.64,1.14-.17.44-.25.92-.25,1.43v8.43h-3.99v-8.85c0-.42,0-.82-.02-1.2-.01-.38-.06-.72-.14-1.01s-.19-.52-.33-.7c-.15-.17-.35-.26-.62-.26s-.52.08-.81.24c-.29.16-.56.39-.81.68-.25.29-.46.64-.64,1.04-.17.4-.28.84-.32,1.31v8.75h-3.99v-10.85c0-.19-.05-.38-.15-.56-.1-.18-.23-.27-.4-.27h-1.88l1.08-2.55h.73c.31,0,.69.12,1.16.35.47.24.93.54,1.39.91s.88.77,1.25,1.19c.38.42.62.82.73,1.2Z"/></svg>